<?xml version="1.0" encoding="UTF-8"?>
<svg id="Layer_2" data-name="Layer 2" xmlns="http://www.w3.org/2000/svg" viewBox="0 0 602.11 634.3">
  <defs>
    <style>
      .cls-1 {
        fill: none;
        stroke: #333;
        stroke-linecap: round;
        stroke-linejoin: round;
        stroke-width: 10.4px;
      }
    </style>
  </defs>
  <g id="_ÎÓÈ_1" data-name="—ÎÓÈ_1">
    <g>
      <path class="cls-1" d="M350.95,215.39h-32.07v-42.97c38.1-8.21,66.75-42.13,66.75-82.64,0-46.63-37.94-84.57-84.57-84.57s-84.57,37.94-84.57,84.57c0,40.51,28.65,74.43,66.75,82.64v42.97h-32.07c-9.84,0-17.82,7.98-17.82,17.82s7.98,17.82,17.82,17.82h32.07v32.24c0,9.84,7.98,17.82,17.82,17.82s17.82-7.98,17.82-17.82v-32.24h32.07c9.84,0,17.82-7.98,17.82-17.82s-7.98-17.82-17.82-17.82Zm-98.81-125.61c0-26.98,21.94-48.92,48.92-48.92s48.92,21.95,48.92,48.92-21.95,48.92-48.92,48.92-48.92-21.95-48.92-48.92Z"/>
      <g>
        <g>
          <path class="cls-1" d="M222.93,565.27c-8.97,8.97-8.97,23.52,0,32.5h0c8.97,8.97,23.52,8.97,32.5,0l14.37-14.37"/>
          <path class="cls-1" d="M253.34,469.86l-62.91,62.91c-8.97,8.97-8.97,23.52,0,32.5h0c8.97,8.97,23.52,8.97,32.5,0l25.56-25.56"/>
          <path class="cls-1" d="M302.29,615.89l-6.1,6.1c-8.65,8.65-22.74,9.68-31.94,1.6-10.08-8.85-10.45-24.21-1.12-33.54"/>
          <path class="cls-1" d="M596.91,275.21l-118.96,118.96c-20.82,20.82-1.15,68.94-3.56,105.14-1.78,26.66-17.77,52-44.73,85.57-22.38,27.87-48.01,12.88-48.01,12.88"/>
          <path class="cls-1" d="M253.34,469.86l-52.55,52.55c-8.65,8.65-22.74,9.68-31.94,1.6-10.08-8.85-10.45-24.21-1.12-33.54l133.96-133.96c10.29-10.29,23.79-16.76,38.26-18.34l6.98-.76c14.47-1.58,27.97-8.05,38.26-18.34l127.77-127.77"/>
        </g>
        <g>
          <g>
            <path class="cls-1" d="M89.13,191.28l130.24,127.77c10.29,10.29,23.79,16.76,38.26,18.34l6.98,.76c14.2,1.55,27.46,7.81,37.68,17.77"/>
            <path class="cls-1" d="M172.31,485.9c-9.96-10.22-16.21-23.48-17.76-37.67l-.76-6.98c-1.58-14.47-8.05-27.97-18.34-38.26L5.2,275.21"/>
          </g>
          <path class="cls-1" d="M414.15,565.27h0c8.97-8.97,8.97-23.52,0-32.5l-60.41-60.41c-8.97-8.97-23.52-8.97-32.5,0h0c-8.97,8.97-8.97,23.52,0,32.5l60.41,60.41c8.97,8.97,23.52,8.97,32.5,0Z"/>
          <path class="cls-1" d="M381.65,597.76h0c8.97-8.97,8.97-23.52,0-32.5l-60.41-60.41c-8.97-8.97-23.52-8.97-32.5,0h0c-8.97,8.97-8.97,23.52,0,32.5l60.41,60.41c8.97,8.97,23.52,8.97,32.5,0Z"/>
          <path class="cls-1" d="M340.79,621.89h0c8.97-8.97,8.97-23.52,0-32.5l-39.54-39.54c-8.97-8.97-23.52-8.97-32.5,0h0c-8.97,8.97-8.97,23.52,0,32.5l39.54,39.54c8.97,8.97,23.52,8.97,32.5,0Z"/>
          <path class="cls-1" d="M437.35,523.47h0c8.97-8.97,8.97-23.52,0-32.5l-37.37-37.37c-8.97-8.97-23.52-8.97-32.5,0h0c-8.97,8.97-8.97,23.52,0,32.5l37.37,37.37c8.97,8.97,23.52,8.97,32.5,0Z"/>
        </g>
      </g>
    </g>
  </g>
</svg>