<?xml version="1.0" encoding="UTF-8"?>
<svg id="Layer_2" data-name="Layer 2" xmlns="http://www.w3.org/2000/svg" viewBox="0 0 589.86 616.97">
  <defs>
    <style>
      .cls-1 {
        fill: none;
        stroke: #333;
        stroke-linecap: round;
        stroke-linejoin: round;
        stroke-width: 10.4px;
      }
    </style>
  </defs>
  <g id="_ÎÓÈ_1" data-name="—ÎÓÈ_1">
    <g>
      <path class="cls-1" d="M145.95,434.99h-29.94v-37.26c35.57-7.67,62.32-39.33,62.32-77.15,0-43.54-35.42-78.95-78.96-78.95s-78.95,35.42-78.95,78.95c0,37.82,26.75,69.49,62.31,77.15v37.26h-29.94c-9.19,0-16.64,7.45-16.64,16.64s7.45,16.64,16.64,16.64h29.94v27.24c0,9.19,7.45,16.64,16.64,16.64s16.64-7.45,16.64-16.64v-27.24h29.94c9.19,0,16.64-7.45,16.64-16.64s-7.45-16.64-16.64-16.64Zm-92.25-114.42c0-25.18,20.49-45.67,45.67-45.67s45.67,20.49,45.67,45.67-20.49,45.67-45.67,45.67-45.67-20.49-45.67-45.67Z"/>
      <g>
        <rect class="cls-1" x="355.21" y="316.9" width="270.53" height="119.96" rx="12.5" ry="12.5" transform="translate(867.36 -113.6) rotate(90)"/>
        <ellipse class="cls-1" cx="490.48" cy="376.88" rx="33.3" ry="26.31"/>
        <path class="cls-1" d="M523.78,331.82v-47.29c-9.18,0-16.62-7.44-16.62-16.62h-33.35c0,9.18-7.44,16.62-16.62,16.62v47.29"/>
        <path class="cls-1" d="M523.78,421.95v47.29c-9.18,0-16.62,7.44-16.62,16.62h-33.35c0-9.18-7.44-16.62-16.62-16.62v-47.29"/>
      </g>
      <g>
        <path class="cls-1" d="M359.71,565.36h138.81c12.82,0,23.21,10.39,23.21,23.21h0c0,12.82-10.39,23.21-23.21,23.21H91.34c-12.82,0-23.21-10.39-23.21-23.21h0c0-12.82,10.39-23.21,23.21-23.21h235.7"/>
        <path class="cls-1" d="M189.25,565.36l35.09-66.17c6.31-11.89,18.67-19.33,32.13-19.33h76.92c13.46,0,25.82,7.43,32.13,19.33l35.09,66.17"/>
        <path class="cls-1" d="M444.58,111.77l-52.92-51.87c-7.24-7.09-16.97-11.07-27.1-11.07h-35.79v-9.8c0-18.69-15.15-33.84-33.84-33.84h0c-18.69,0-33.84,15.15-33.84,33.84v9.8h-35.79c-10.13,0-19.87,3.97-27.1,11.07l-52.92,51.87H28.95c-13.12,0-23.75,10.63-23.75,23.75h0c0,13.12,10.63,23.75,23.75,23.75H223.33c25.77,0,46.66,20.89,46.66,46.66V479.87h49.87V205.93c0-25.77,20.89-46.66,46.66-46.66h194.38c13.12,0,23.75-10.63,23.75-23.75h0c0-13.12-10.63-23.75-23.75-23.75h-116.33Z"/>
        <line class="cls-1" x1="99.38" y1="159.27" x2="99.38" y2="241.62"/>
        <line class="cls-1" x1="490.48" y1="159.27" x2="490.48" y2="241.62"/>
        <circle class="cls-1" cx="294.93" cy="149.9" r="16.56"/>
        <line class="cls-1" x1="210.22" y1="108.14" x2="379.64" y2="108.14"/>
      </g>
    </g>
  </g>
</svg>