<?xml version="1.0" encoding="UTF-8"?>
<svg id="Layer_2" data-name="Layer 2" xmlns="http://www.w3.org/2000/svg" viewBox="0 0 669.9 548.03">
  <defs>
    <style>
      .cls-1 {
        fill: none;
        stroke: #333;
        stroke-linecap: round;
        stroke-linejoin: round;
        stroke-width: 10.4px;
      }
    </style>
  </defs>
  <g id="_ÎÓÈ_1" data-name="—ÎÓÈ_1">
    <g>
      <g>
        <rect class="cls-1" x="318.02" y="5.2" width="42.29" height="126.12" rx="21.15" ry="21.15"/>
        <path class="cls-1" d="M381.46,120.75h0c-11.68,0-21.15-9.47-21.15-21.15V36.69c0-11.68,9.47-21.15,21.15-21.15h0c11.68,0,21.15,9.47,21.15,21.15v62.91c0,11.68-9.47,21.15-21.15,21.15Z"/>
        <path class="cls-1" d="M296.88,120.75h0c-11.68,0-21.15-9.47-21.15-21.15V26.34c0-11.68,9.47-21.15,21.15-21.15h0c11.68,0,21.15,9.47,21.15,21.15V99.6c0,11.68-9.47,21.15-21.15,21.15Z"/>
        <path class="cls-1" d="M254.59,109.84h0c-11.68,0-21.15-9.47-21.15-21.15V44.79c0-11.68,9.47-21.15,21.15-21.15h0c11.68,0,21.15,9.47,21.15,21.15v43.9c0,11.68-9.47,21.15-21.15,21.15Z"/>
        <path class="cls-1" d="M233.44,83.41v63.84c0,57.29,42.29,56.09,42.29,102.58,0,58.79-4.35,293.01-4.35,293.01"/>
        <path class="cls-1" d="M402.6,73.58s8.1-54.89,33.74-47.69c21.85,6.13,1.35,30.14,.9,60.74s5.85,80.98-22.94,109.78c-26.68,26.68-20.25,59.39-18.45,120.12,1.73,58.52,9,226.3,9,226.3"/>
        <path class="cls-1" d="M325.67,189.66s6.3-29.69,30.14-40.94"/>
      </g>
      <g>
        <line class="cls-1" x1="113.86" y1="193.39" x2="113.86" y2="96.82"/>
        <line class="cls-1" x1="559.27" y1="275.34" x2="559.27" y2="96.82"/>
        <circle class="cls-1" cx="113.86" cy="66.74" r="30.08" transform="translate(-16.87 48.65) rotate(-22.5)"/>
        <line class="cls-1" x1="233.44" y1="66.74" x2="143.94" y2="66.74"/>
        <line class="cls-1" x1="83.79" y1="66.74" x2="18.81" y2="66.74"/>
        <circle class="cls-1" cx="559.27" cy="66.74" r="30.08" transform="translate(-.37 130.28) rotate(-13.28)"/>
        <line class="cls-1" x1="439.98" y1="66.74" x2="529.19" y2="66.74"/>
        <line class="cls-1" x1="589.35" y1="66.74" x2="654.32" y2="66.74"/>
      </g>
      <g>
        <g>
          <path class="cls-1" d="M5.2,295.52H218.43c5.23,0,9.48,4.25,9.48,9.48v19.84c0,36.67-29.77,66.44-66.44,66.44H71.64c-36.67,0-66.44-29.77-66.44-66.44v-29.32h0Z"/>
          <path class="cls-1" d="M113.86,295.52H5.2c0-57.75,45.04-104.97,101.91-108.46,3.65-.22,6.75,2.67,6.75,6.33v102.13S37.05,218.7,37.05,218.7"/>
        </g>
        <circle class="cls-1" cx="171.02" cy="455.76" r="37.12" transform="translate(-306.25 551.56) rotate(-80.78)"/>
        <circle class="cls-1" cx="62.09" cy="455.76" r="37.12" transform="translate(-397.73 444.04) rotate(-80.78)"/>
        <line class="cls-1" x1="99.21" y1="455.76" x2="133.9" y2="455.76"/>
        <line class="cls-1" x1="171.02" y1="418.64" x2="152.06" y2="391.27"/>
        <line class="cls-1" x1="62.09" y1="418.64" x2="81.05" y2="391.27"/>
      </g>
      <g>
        <rect class="cls-1" x="453.71" y="336.23" width="210.99" height="156.65" rx="15.9" ry="15.9"/>
        <rect class="cls-1" x="508.45" y="275.66" width="101.52" height="28.51" rx="7.95" ry="7.95"/>
        <line class="cls-1" x1="516.4" y1="304.17" x2="516.4" y2="336.23"/>
        <line class="cls-1" x1="602.01" y1="304.17" x2="602.01" y2="336.23"/>
        <path class="cls-1" d="M490.82,336.23h36.1v31.13c0,5.48-4.45,9.93-9.93,9.93h-16.24c-5.48,0-9.93-4.45-9.93-9.93v-31.13h0Z"/>
        <path class="cls-1" d="M591.49,336.23h36.09v31.13c0,5.48-4.45,9.93-9.93,9.93h-16.24c-5.48,0-9.93-4.45-9.93-9.93v-31.13h0Z"/>
      </g>
    </g>
  </g>
</svg>