<?xml version="1.0" encoding="UTF-8"?>
<svg id="Layer_2" data-name="Layer 2" xmlns="http://www.w3.org/2000/svg" viewBox="0 0 599.64 511.45">
  <defs>
    <style>
      .cls-1 {
        fill: none;
        stroke: #333;
        stroke-linecap: round;
        stroke-linejoin: round;
        stroke-width: 10.4px;
      }
    </style>
  </defs>
  <g id="_ÎÓÈ_1" data-name="—ÎÓÈ_1">
    <g>
      <path class="cls-1" d="M320.75,291.64h-27.38v-34.08c32.53-7.01,56.99-35.97,56.99-70.56,0-39.82-32.39-72.21-72.21-72.21s-72.21,32.39-72.21,72.21c0,34.59,24.46,63.55,56.99,70.56v34.08h-27.38c-8.41,0-15.22,6.81-15.22,15.22s6.81,15.22,15.22,15.22h27.38v24.91c0,8.41,6.81,15.22,15.22,15.22s15.22-6.81,15.22-15.22v-24.91h27.38c8.41,0,15.22-6.81,15.22-15.22s-6.81-15.22-15.22-15.22Zm-84.37-104.64c0-23.03,18.74-41.77,41.77-41.77s41.77,18.74,41.77,41.77-18.74,41.77-41.77,41.77-41.77-18.74-41.77-41.77Z"/>
      <path class="cls-1" d="M50.28,265.74h51.77l-20.04,89.69c-1.4,6.25,7.39,9.2,10.05,3.38l54.11-118.55c3.22-7.06-1.94-15.09-9.7-15.09h-51.77l20.04-89.69c1.4-6.25-7.39-9.2-10.05-3.38l-54.11,118.55c-3.22,7.06,1.94,15.09,9.7,15.09Z"/>
      <g>
        <path class="cls-1" d="M481.3,50.59h41.54c15.61,0,28.27,12.66,28.27,28.27V240.18"/>
        <path class="cls-1" d="M501.27,429.77H33.47c-15.61,0-28.27-12.66-28.27-28.27V78.86c0-15.61,12.66-28.27,28.27-28.27H361.11"/>
        <path class="cls-1" d="M482.68,78.71h14.32c13.71,0,24.83,11.12,24.83,24.83V240.18"/>
        <path class="cls-1" d="M359.72,78.71H59.3c-13.71,0-24.83,11.12-24.83,24.83v98.39"/>
        <path class="cls-1" d="M379.3,401.65H59.3c-13.71,0-24.83-11.12-24.83-24.83v-83.95"/>
        <rect class="cls-1" x="200.85" y="429.77" width="154.6" height="76.49"/>
        <line class="cls-1" x1="153.62" y1="506.25" x2="402.68" y2="506.25"/>
      </g>
      <g>
        <circle class="cls-1" cx="421.2" cy="67.66" r="62.46"/>
        <path class="cls-1" d="M394.97,91.46c3.53-11.13,13.94-19.19,26.23-19.19s22.71,8.06,26.23,19.19"/>
        <circle class="cls-1" cx="394.97" cy="47.57" r="4.19"/>
        <path class="cls-1" d="M451.62,47.57c0,2.31-1.87,4.19-4.19,4.19s-4.19-1.87-4.19-4.19,1.87-4.19,4.19-4.19,4.19,1.87,4.19,4.19Z"/>
      </g>
      <g>
        <path class="cls-1" d="M528.71,400.36h-100.72c-15.24,0-27.59-12.35-27.59-27.59v-105.06c0-15.24,12.35-27.59,27.59-27.59h138.87c15.24,0,27.59,12.35,27.59,27.59v105.06c0,15.24-12.35,27.59-27.59,27.59"/>
        <line class="cls-1" x1="438.08" y1="320.31" x2="556.06" y2="320.31"/>
        <line class="cls-1" x1="489.89" y1="280.18" x2="556.06" y2="280.18"/>
        <line class="cls-1" x1="438.08" y1="280.18" x2="461.87" y2="280.18"/>
        <line class="cls-1" x1="528.71" y1="360.44" x2="556.06" y2="360.44"/>
        <line class="cls-1" x1="438.08" y1="360.44" x2="501.27" y2="360.44"/>
        <path class="cls-1" d="M566.86,400.36l-25.74,34.26c-3.98,5.3-12.41,2.48-12.41-4.14v-30.11"/>
      </g>
    </g>
  </g>
</svg>