<?xml version="1.0" encoding="UTF-8"?>
<svg id="Layer_2" data-name="Layer 2" xmlns="http://www.w3.org/2000/svg" viewBox="0 0 634.3 590.23">
  <defs>
    <style>
      .cls-1 {
        fill: none;
        stroke: #333;
        stroke-linecap: round;
        stroke-linejoin: round;
        stroke-width: 10.4px;
      }
    </style>
  </defs>
  <g id="_ÎÓÈ_1" data-name="—ÎÓÈ_1">
    <g>
      <g>
        <path class="cls-1" d="M155.43,443.49h-25.39v-34.02c30.16-6.5,52.85-33.36,52.85-65.43,0-36.92-30.04-66.96-66.96-66.96s-66.96,30.04-66.96,66.96c0,32.08,22.68,58.93,52.85,65.43v34.02h-25.39c-7.79,0-14.11,6.32-14.11,14.11s6.32,14.11,14.11,14.11h25.39v25.52c0,7.79,6.32,14.11,14.11,14.11s14.11-6.32,14.11-14.11v-25.52h25.39c7.79,0,14.11-6.32,14.11-14.11s-6.32-14.11-14.11-14.11Zm-78.24-99.46c0-21.36,17.37-38.74,38.73-38.74s38.74,17.38,38.74,38.74-17.38,38.74-38.74,38.74-38.73-17.38-38.73-38.74Z"/>
        <path class="cls-1" d="M557.01,233.22c-.08-.42-.24-.8-.36-1.2-.14-.48-.25-.97-.44-1.43-.2-.48-.47-.91-.71-1.35-.2-.36-.35-.73-.58-1.07-1.03-1.55-2.36-2.88-3.91-3.91-.35-.23-.73-.39-1.09-.59-.44-.24-.87-.51-1.34-.71-.46-.19-.94-.3-1.41-.44-.41-.12-.8-.28-1.23-.36-.86-.17-1.73-.25-2.61-.26-.05,0-.1-.02-.15-.02h-62.35c-7.79,0-14.11,6.32-14.11,14.11s6.32,14.11,14.11,14.11h28.28l-36.4,36.4c-10.08-6.08-21.83-9.64-34.43-9.64-36.92,0-66.96,30.04-66.96,66.96s30.04,66.96,66.96,66.96,66.96-30.04,66.96-66.96c0-14.12-4.42-27.21-11.91-38.03l35.74-35.74v28.28c0,7.79,6.32,14.11,14.11,14.11s14.11-6.32,14.11-14.11v-62.35c0-.93-.1-1.85-.28-2.76Zm-118.74,149.34c-21.36,0-38.74-17.38-38.74-38.74s17.38-38.74,38.74-38.74,38.73,17.38,38.73,38.74-17.37,38.74-38.73,38.74Z"/>
        <g>
          <rect class="cls-1" x="223.72" y="300.09" width="108.43" height="31.09" rx="15.54" ry="15.54"/>
          <rect class="cls-1" x="223.72" y="356.89" width="108.43" height="31.09" rx="15.54" ry="15.54"/>
        </g>
      </g>
      <g>
        <path class="cls-1" d="M233.6,265.31c-2.47-27.11-11.06-53.38-25.22-76.79l-45.12-74.6H76.28L31.17,188.52c-16.99,28.09-25.97,60.29-25.97,93.11v268.99c0,18.99,15.4,34.39,34.39,34.39H199.95c18.99,0,34.39-15.4,34.39-34.39v-125.59"/>
        <path class="cls-1" d="M86.11,76.07h67.32c5.42,0,9.83,4.4,9.83,9.83v28.02H76.28v-28.02c0-5.42,4.4-9.83,9.83-9.83Z"/>
        <path class="cls-1" d="M113.72,5.2h12.1c16.56,0,30.01,13.45,30.01,30.01v4.12c0,4.25-3.45,7.7-7.7,7.7h-56.7c-4.25,0-7.7-3.45-7.7-7.7v-4.12c0-16.56,13.45-30.01,30.01-30.01Z"/>
        <rect class="cls-1" x="103.36" y="47.03" width="32.82" height="29.04"/>
      </g>
      <g>
        <g>
          <path class="cls-1" d="M453.28,564.37c-31.2,13.28-65.54,20.63-101.59,20.63-42.46,0-82.54-10.19-117.92-28.27"/>
          <path class="cls-1" d="M607.12,372.01c-4.03,22.21-10.88,43.44-20.17,63.29"/>
          <path class="cls-1" d="M175.73,134.54c46.26-42.67,108.07-68.73,175.96-68.73,143.05,0,259.08,115.71,259.6,258.65"/>
          <path class="cls-1" d="M341.99,507.5c-40.91-2.14-78.25-17.77-107.66-42.52"/>
          <path class="cls-1" d="M433.58,488.38c-9.23,4.65-18.92,8.54-28.97,11.58"/>
          <path class="cls-1" d="M216.35,203.2c33.37-36.93,81.65-60.14,135.34-60.14,49.67,0,94.71,19.86,127.59,52.07"/>
        </g>
        <circle class="cls-1" cx="373" cy="501.89" r="31.57"/>
        <circle class="cls-1" cx="604.9" cy="347.81" r="24.2"/>
        <path class="cls-1" d="M499.37,563.64c.14-.19,.26-.39,.39-.58,2.7,5.16,6.5,9.83,11.43,13.59,17.99,13.7,43.69,10.22,57.39-7.77,4.72-6.2,7.36-13.32,8.11-20.55,9.51,3.94,20.84,1.2,27.37-7.38,7.78-10.21,5.8-24.8-4.41-32.58-.05-.04-.1-.06-.15-.1,3.96-2.49,7.57-5.68,10.58-9.62,13.4-17.6,10-42.74-7.6-56.14-12.03-9.16-27.57-10.46-40.49-4.75-.11-6.89-3.24-13.66-9.14-18.16-10.21-7.78-24.8-5.8-32.58,4.41-4.18,5.5-5.52,12.25-4.3,18.54-17.4-5.34-37.02,.29-48.69,15.62-13.75,18.06-11.61,43.2,4.07,58.76-7.16,1.16-13.92,4.93-18.66,11.16-9.82,12.89-7.32,31.3,5.57,41.11,12.89,9.82,31.3,7.32,41.11-5.57Z"/>
      </g>
    </g>
  </g>
</svg>