<?xml version="1.0" encoding="UTF-8"?>
<svg id="Layer_2" data-name="Layer 2" xmlns="http://www.w3.org/2000/svg" viewBox="0 0 536.99 556.8">
  <defs>
    <style>
      .cls-1 {
        fill: none;
        stroke: #333;
        stroke-linecap: round;
        stroke-linejoin: round;
        stroke-width: 10.4px;
      }
    </style>
  </defs>
  <g id="_ÎÓÈ_1" data-name="—ÎÓÈ_1">
    <g>
      <g>
        <path class="cls-1" d="M407.43,190.12c-9.33-11.58-22.52-19.92-37.61-23.07,7.32-9.24,11.73-20.9,11.73-33.6,0-29.92-24.26-54.18-54.18-54.18-4.83,0-9.49,.69-13.95,1.88,.91-3.3,1.43-6.75,1.43-10.33,0-21.45-17.38-38.83-38.83-38.83-12.22,0-23.1,5.65-30.22,14.48-9.22-24.1-32.5-41.25-59.85-41.25-35.42,0-64.12,28.71-64.12,64.12,0,4.26,.44,8.41,1.23,12.44-28.32,.48-51.14,23.54-51.14,51.97,0,6.49,1.27,12.65,3.45,18.37-.92-.04-1.84-.07-2.77-.07-37.22,0-67.39,30.17-67.39,67.39,0,.19,.01,.38,.01,.57,0,.1-.01,.19-.01,.28,0,.62,.05,1.23,.07,1.84,.01,.34,.02,.67,.04,1.01,.52,12.08,4.29,23.33,10.51,32.84l.19,.04c11.92,18.41,32.57,30.63,56.1,30.8-6.57,8.96-10.5,19.98-10.5,31.94,0,22.24,13.42,41.35,32.6,49.67"/>
        <path class="cls-1" d="M364.86,362.1c14.65-10.15,24.24-27.08,24.24-46.25,0-8.93-2.14-17.34-5.84-24.84,21.01-9.48,36.15-29.67,38.37-53.63"/>
        <path class="cls-1" d="M22.64,551.6v-97.72c0-37.72,24.73-70.97,60.86-81.82l100.8-30.28v-42.62"/>
        <path class="cls-1" d="M304.77,173.52v54.25c0,42.34-34.32,76.67-76.67,76.67h-15.79c-42.34,0-76.67-34.32-76.67-76.67v-54.25"/>
        <path class="cls-1" d="M124.06,173.52h11.59v54.25h-11.59c-14.97,0-27.13-12.15-27.13-27.13h0c0-14.97,12.15-27.13,27.13-27.13Z"/>
        <path class="cls-1" d="M331.9,173.52h11.59v54.25h-11.59c-14.97,0-27.13-12.15-27.13-27.13h0c0-14.97,12.15-27.13,27.13-27.13Z" transform="translate(648.26 401.3) rotate(180)"/>
        <path class="cls-1" d="M135.65,173.52s77.31,.66,106.16-63.46c9.92,43.16,43.16,51.95,62.97,63.46"/>
        <polyline class="cls-1" points="184.3 341.78 220.74 378.22 256.66 342.31"/>
        <path class="cls-1" d="M220.74,378.22l-24.79,24.9c-7.24,7.27-19.45,5.4-24.19-3.69l-24.27-46.6"/>
        <polyline class="cls-1" points="340.9 366.92 257.19 341.78 257.19 299.16"/>
        <path class="cls-1" d="M220.74,378.22l24.79,24.9c7.24,7.27,19.45,5.4,24.19-3.69l24.27-46.6"/>
      </g>
      <path class="cls-1" d="M486.61,172.5l9.95,23.54c.81,1.91,2.6,3.21,4.66,3.39l25.46,2.19c4.91,.42,6.9,6.55,3.18,9.77l-19.31,16.73c-1.56,1.36-2.25,3.46-1.78,5.48l5.79,24.89c1.12,4.8-4.09,8.59-8.31,6.04l-21.88-13.2c-1.77-1.07-3.99-1.07-5.76,0l-21.88,13.2c-4.22,2.55-9.43-1.24-8.31-6.04l5.79-24.89c.47-2.02-.22-4.12-1.78-5.48l-19.31-16.73c-3.73-3.23-1.74-9.35,3.18-9.77l25.46-2.19c2.06-.18,3.86-1.48,4.66-3.39l9.95-23.54c1.92-4.54,8.36-4.54,10.28,0Z"/>
      <g>
        <path class="cls-1" d="M261.13,466.34h81.67v85.27h-92.45v-74.49c0-5.95,4.83-10.77,10.77-10.77Z"/>
        <path class="cls-1" d="M353.58,384.51h70.9c5.95,0,10.77,4.83,10.77,10.77v156.32h-92.45v-156.32c0-5.95,4.83-10.77,10.77-10.77Z"/>
        <path class="cls-1" d="M446.02,292.21h70.9c5.95,0,10.77,4.83,10.77,10.77v248.62h-92.45v-248.62c0-5.95,4.83-10.77,10.77-10.77Z"/>
        <g>
          <polyline class="cls-1" points="459.41 364.11 481.47 335.68 503.54 364.11"/>
          <line class="cls-1" x1="481.47" y1="335.68" x2="481.47" y2="524.89"/>
        </g>
      </g>
    </g>
  </g>
</svg>