<?xml version="1.0" encoding="UTF-8"?>
<svg id="Layer_2" data-name="Layer 2" xmlns="http://www.w3.org/2000/svg" viewBox="0 0 634.3 504.48">
  <defs>
    <style>
      .cls-1 {
        fill: none;
        stroke: #333;
        stroke-linecap: round;
        stroke-linejoin: round;
        stroke-width: 10.4px;
      }
    </style>
  </defs>
  <g id="_ÎÓÈ_1" data-name="—ÎÓÈ_1">
    <g>
      <g>
        <rect class="cls-1" x="297.83" y="5.2" width="45.95" height="382.31" rx="22.98" ry="22.98"/>
        <path class="cls-1" d="M297.83,359.02s-74.93-69.71-213.02-78.19c-15.51-.95-27.68-13.62-27.68-29.16v-110.63c0-15.53,12.18-28.21,27.68-29.16,138.09-8.48,213.02-78.19,213.02-78.19"/>
        <line class="cls-1" x1="122.99" y1="257.93" x2="122.99" y2="134.78"/>
        <path class="cls-1" d="M50.84,150.71h6.28v91.29h-6.28c-25.19,0-45.64-20.45-45.64-45.64h0c0-25.19,20.45-45.64,45.64-45.64Z"/>
        <path class="cls-1" d="M84.8,280.82v201.68c0,9.26,7.51,16.77,16.77,16.77h81.76c9.26,0,16.77-7.51,16.77-16.77h0c0-9.26-7.51-16.77-16.77-16.77h0c-15.44,0-27.95-12.51-27.95-27.95v-146.45"/>
      </g>
      <g>
        <path class="cls-1" d="M459.11,237.38v-25.94s34.75,0,34.75,0c6.64,30.81,34.07,53.99,66.84,53.99,37.72,0,68.4-30.68,68.4-68.4,0-37.71-30.68-68.4-68.4-68.4-32.77,0-60.2,23.17-66.84,53.98h-34.75v-25.94c0-7.96-6.45-14.42-14.42-14.42s-14.42,6.45-14.42,14.42v25.94h-26.07c-7.96,0-14.42,6.45-14.42,14.42s6.45,14.42,14.42,14.42h26.07v25.94c0,7.96,6.45,14.42,14.42,14.42s14.42-6.45,14.42-14.42Zm101.6-79.92c21.82,0,39.57,17.75,39.57,39.57,0,21.82-17.75,39.57-39.57,39.57s-39.57-17.75-39.57-39.57c0-21.82,17.75-39.57,39.57-39.57Z"/>
        <line class="cls-1" x1="389.79" y1="97.9" x2="586.41" y2="9.26"/>
        <line class="cls-1" x1="586.41" y1="384.81" x2="389.79" y2="296.17"/>
      </g>
    </g>
  </g>
</svg>