<?xml version="1.0" encoding="UTF-8"?>
<svg id="Layer_2" data-name="Layer 2" xmlns="http://www.w3.org/2000/svg" viewBox="0 0 531.03 599.64">
  <defs>
    <style>
      .cls-1 {
        fill: none;
        stroke: #333;
        stroke-linecap: round;
        stroke-linejoin: round;
        stroke-width: 10.4px;
      }
    </style>
  </defs>
  <g id="_ÎÓÈ_1" data-name="—ÎÓÈ_1">
    <g>
      <g>
        <path class="cls-1" d="M195.59,398.31c19.72,14.01,43.81,22.26,69.79,22.26,66.58,0,120.75-54.17,120.75-120.75,0-21.97-5.9-42.58-16.2-60.34"/>
        <path class="cls-1" d="M335.19,201.4c-13.1-9.31-28.13-16.08-44.36-19.58v-57.8h45.78c14.06,0,25.45-11.39,25.45-25.45s-11.39-25.45-25.45-25.45h-45.78V30.65c0-14.06-11.39-25.45-25.45-25.45s-25.45,11.39-25.45,25.45v42.48h-45.78c-14.06,0-25.45,11.39-25.45,25.45s11.39,25.45,25.45,25.45h45.78v57.8c-54.39,11.72-95.3,60.15-95.3,118,0,22.01,5.92,42.67,16.25,60.46"/>
        <path class="cls-1" d="M195.53,299.82c0-38.52,31.34-69.85,69.85-69.85,12.81,0,24.82,3.46,35.15,9.5"/>
        <path class="cls-1" d="M335.23,299.82c0,38.52-31.33,69.85-69.85,69.85-12.73,0-24.67-3.42-34.96-9.39"/>
      </g>
      <g>
        <path class="cls-1" d="M195.54,201.19c-19.68-13.93-43.7-22.12-69.59-22.12-66.58,0-120.75,54.17-120.75,120.75,0,57.85,40.91,106.27,95.3,118v57.8H54.71c-14.06,0-25.45,11.39-25.45,25.45s11.39,25.45,25.45,25.45h45.78v42.47c0,14.06,11.39,25.45,25.45,25.45s25.45-11.39,25.45-25.45v-42.47h45.78c14.06,0,25.45-11.39,25.45-25.45s-11.39-25.45-25.45-25.45h-45.78v-57.8c54.39-11.72,95.3-60.15,95.3-118,0-22.01-5.92-42.67-16.25-60.46"/>
        <path class="cls-1" d="M195.53,299.82c0,38.52-31.07,69.85-69.58,69.85s-69.85-31.33-69.85-69.85,31.33-69.85,69.85-69.85c12.73,0,24.67,3.42,34.96,9.39"/>
      </g>
      <g>
        <path class="cls-1" d="M335.26,398.24c13.1,9.31,28.14,16.08,44.37,19.58v57.8h-45.78c-14.06,0-25.45,11.39-25.45,25.45s11.39,25.45,25.45,25.45h45.78v42.47c0,14.06,11.39,25.45,25.45,25.45s25.45-11.39,25.45-25.45v-42.47h45.78c14.06,0,25.45-11.39,25.45-25.45s-11.39-25.45-25.45-25.45h-45.78v-57.8c54.39-11.72,95.3-60.15,95.3-118,0-66.58-54.17-120.75-120.75-120.75s-120.75,54.17-120.75,120.75c0,21.97,5.9,42.57,16.19,60.33"/>
        <path class="cls-1" d="M335.23,299.82c0-38.52,31.33-69.85,69.85-69.85s69.85,31.33,69.85,69.85-31.34,69.85-69.85,69.85c-12.81,0-24.82-3.46-35.15-9.51"/>
      </g>
    </g>
  </g>
</svg>