<?xml version="1.0" encoding="UTF-8"?>
<svg id="Layer_2" data-name="Layer 2" xmlns="http://www.w3.org/2000/svg" viewBox="0 0 554.46 603.11">
  <defs>
    <style>
      .cls-1 {
        fill: none;
        stroke: #333;
        stroke-linecap: round;
        stroke-linejoin: round;
        stroke-width: 10.4px;
      }
    </style>
  </defs>
  <g id="_ÎÓÈ_1" data-name="—ÎÓÈ_1">
    <g>
      <g>
        <path class="cls-1" d="M302.28,361.12c23.46,32.86,54.79,56.63,75.82,70.26l-.06,55.61h-41.5c-12.74,0-23.07,10.33-23.07,23.07s10.33,23.07,23.07,23.07h41.5v41.72c0,12.74,10.33,23.07,23.07,23.07s23.07-10.33,23.07-23.07v-41.72h41.5c12.74,0,23.07-10.33,23.07-23.07s-10.33-23.07-23.07-23.07h-41.5l-.06-55.61c21.03-13.63,52.36-37.4,75.82-70.26"/>
        <path class="cls-1" d="M527.44,303.25c2.83-11.25,4.41-23.11,4.41-35.57,0-36.52-29.61-66.13-66.12-66.13-31.73,0-58.22,22.36-64.62,52.18-6.41-29.82-32.89-52.18-64.62-52.18-36.52,0-66.13,29.61-66.13,66.13,0,12.46,1.59,24.32,4.41,35.57"/>
        <polyline class="cls-1" points="252.94 332.18 337.3 332.18 360.42 276.43 403.57 382.94 442.28 300.56 465.92 332.18 549.26 332.18"/>
      </g>
      <g>
        <path class="cls-1" d="M250.28,28.46h0c0-12.85-10.42-23.26-23.26-23.26h-26.87c-12.85,0-23.26,10.42-23.26,23.26h0c0,7.42-6.02,13.43-13.43,13.43h-21.25c-7.42,0-13.43,6.01-13.43,13.43v60.54c0,7.42,6.01,13.43,13.43,13.43h142.76c7.42,0,13.43-6.01,13.43-13.43V55.33c0-7.42-6.01-13.43-13.43-13.43h-21.25c-7.42,0-13.43-6.02-13.43-13.43Z"/>
        <line class="cls-1" x1="90.42" y1="188.95" x2="305.57" y2="188.95"/>
        <line class="cls-1" x1="90.42" y1="481.38" x2="290.71" y2="481.38"/>
        <line class="cls-1" x1="90.42" y1="383.9" x2="280.09" y2="383.9"/>
        <line class="cls-1" x1="90.42" y1="286.42" x2="238.5" y2="286.42"/>
        <path class="cls-1" d="M362.1,597.91H30.18c-13.79,0-24.98-11.18-24.98-24.98V92.33c0-13.79,11.18-24.98,24.98-24.98h98.59"/>
        <path class="cls-1" d="M298.39,67.35h98.59c13.79,0,24.98,11.18,24.98,24.98v117.23"/>
        <path class="cls-1" d="M378.1,544.55c-2.71,6.4-9.05,10.9-16.44,10.9H65.51c-9.85,0-17.84-7.99-17.84-17.84V127.66c0-9.85,7.99-17.84,17.84-17.84h63.26"/>
        <path class="cls-1" d="M298.39,109.82h63.26c9.85,0,17.84,7.99,17.84,17.84v81.43"/>
        <path class="cls-1" d="M218.74,36.75c0,2.85-2.31,5.16-5.16,5.16s-5.16-2.31-5.16-5.16,2.31-5.16,5.16-5.16,5.16,2.31,5.16,5.16Z"/>
      </g>
    </g>
  </g>
</svg>