<?xml version="1.0" encoding="UTF-8"?>
<svg id="Layer_2" data-name="Layer 2" xmlns="http://www.w3.org/2000/svg" viewBox="0 0 599.64 581.16">
  <defs>
    <style>
      .cls-1 {
        fill: none;
        stroke: #333;
        stroke-linecap: round;
        stroke-linejoin: round;
        stroke-width: 10.4px;
      }
    </style>
  </defs>
  <g id="_ÎÓÈ_1" data-name="—ÎÓÈ_1">
    <g>
      <g>
        <path class="cls-1" d="M62.78,398.32c10.46,.95,20.83,3.38,36.69,1.25,36.27-4.88,59.3-12,92.27-9.68,47.39,3.34,71.48,31.51,84.14,48.69,17.19,23.33,101.53,33.85,104.66,57.7,3.04,23.18-44.68,21.75-89.42,1.78-28.14-12.56-59.32-5.41-80.96-14.2"/>
        <path class="cls-1" d="M53.76,497.25s21.62,1.39,30.02,2.15c42.57,3.88,166.97,72.02,215.25,76.42,25.16,2.29,77.56-23.54,129.4-55.26,81.62-49.95,106.35-67.68,96.25-84.3-16.83-27.71-89.45,35.61-147.83,52.4"/>
        <path class="cls-1" d="M513.96,429.52c7.68-8.86,9.23-22.02,.29-29.37-8.39-6.89-22.44-3.7-40.83,6.87-34.43,19.78-105.28,51.79-154.87,54.82"/>
      </g>
      <g>
        <path class="cls-1" d="M70.89,131.64c-7.73,2.42-13.49,8.11-16.27,15.06-1.65,4.13-6.71,5.82-10.51,3.51-6.4-3.88-14.42-4.96-22.06-2.24-13.88,4.95-20.26,20.84-15.04,34.62,9.1,24.01,32.74,37.75,50.26,44.91,12.36,5.05,26.49,.33,33.32-11.14,9.69-16.26,20.31-41.46,13.14-66.11-4.12-14.15-18.77-23-32.84-18.61Z"/>
        <path class="cls-1" d="M323.99,400.15v-19.54c0-6.49,2.7-12.68,7.45-17.1l13.45-12.52c51.09-47.56,80.11-114.23,80.11-184.03V85.24c0-20.96-13.46-39.69-33.44-46.01-61.16-19.36-122.31-19.36-183.47,0-19.98,6.32-33.44,25.05-33.44,46.01v81.72c0,69.8,29.02,136.47,80.11,184.03l13.45,12.52c4.75,4.42,7.45,10.62,7.45,17.1v19.54"/>
        <path class="cls-1" d="M328.29,298.79c32.28-32.74,50.61-78.63,50.61-126.68v-48.61c0-14.43-8.5-27.32-21.13-31.67-38.64-13.33-77.27-13.33-115.91,0-12.62,4.35-21.13,17.25-21.13,31.67v48.61c0,48.05,18.33,93.94,50.61,126.68l28.47,27.1,28.47-27.1Z"/>
        <g>
          <path class="cls-1" d="M31.78,146.49C23.77,122.74,4.31,52.55,41.65,21.71c56.14-46.36,151.87,19.32,156.22,22.14"/>
          <path class="cls-1" d="M177.94,67.64c-26.79-16.48-85.79-47.82-116.74-22.25-19,15.69-9.15,65.45-.12,91.92"/>
        </g>
        <path class="cls-1" d="M528.76,131.64c7.73,2.42,13.49,8.11,16.27,15.06,1.65,4.13,6.71,5.82,10.51,3.51,6.4-3.88,14.42-4.96,22.06-2.24,13.88,4.95,20.26,20.84,15.04,34.62-9.1,24.01-32.74,37.75-50.26,44.91-12.36,5.05-26.49,.33-33.32-11.14-9.69-16.26-20.31-41.46-13.14-66.11,4.12-14.15,18.77-23,32.84-18.61Z"/>
        <g>
          <path class="cls-1" d="M567.87,146.49c8.01-23.75,27.47-93.94-9.87-124.78-56.14-46.36-151.87,19.32-156.22,22.14"/>
          <path class="cls-1" d="M421.7,67.64c26.79-16.48,85.79-47.82,116.74-22.25,19,15.69,9.15,65.45,.12,91.92"/>
        </g>
        <line class="cls-1" x1="299.82" y1="325.89" x2="299.82" y2="375.43"/>
      </g>
    </g>
  </g>
</svg>