<?xml version="1.0" encoding="UTF-8"?>
<svg id="Layer_2" data-name="Layer 2" xmlns="http://www.w3.org/2000/svg" viewBox="0 0 616.97 525.4">
  <defs>
    <style>
      .cls-1 {
        fill: none;
        stroke: #333;
        stroke-linecap: round;
        stroke-linejoin: round;
        stroke-width: 10.4px;
      }
    </style>
  </defs>
  <g id="_ÎÓÈ_1" data-name="—ÎÓÈ_1">
    <g>
      <g>
        <line class="cls-1" x1="448.76" y1="520.2" x2="236.83" y2="520.2"/>
        <path class="cls-1" d="M419.73,53.26h60.05c20.49,0,37.1,16.61,37.1,37.1v240.05"/>
        <line class="cls-1" x1="311.64" y1="53.26" x2="376.86" y2="53.26"/>
        <line class="cls-1" x1="203.55" y1="53.26" x2="268.77" y2="53.26"/>
        <path class="cls-1" d="M63.52,199.49V90.37c0-20.49,16.61-37.1,37.1-37.1h60.05"/>
        <line class="cls-1" x1="63.52" y1="145.87" x2="516.88" y2="145.87"/>
        <rect class="cls-1" x="268.77" y="5.2" width="42.87" height="96.13" rx="15.46" ry="15.46"/>
        <rect class="cls-1" x="376.86" y="5.2" width="42.87" height="96.13" rx="15.46" ry="15.46"/>
        <rect class="cls-1" x="160.68" y="5.2" width="42.87" height="96.13" rx="15.46" ry="15.46"/>
        <rect class="cls-1" x="260.78" y="196.25" width="59.55" height="59.55" rx="11.29" ry="11.29"/>
        <rect class="cls-1" x="384.11" y="196.25" width="59.55" height="59.55" rx="11.29" ry="11.29"/>
        <path class="cls-1" d="M148.8,196.25h36.92c6.24,0,11.29,5.06,11.29,11.29v36.97c0,6.24-5.06,11.29-11.29,11.29h-36.92"/>
        <path class="cls-1" d="M413.53,360.19h-18.13c-6.24,0-11.29-5.06-11.29-11.29v-36.97c0-6.24,5.06-11.29,11.29-11.29h36.97c6.24,0,11.29,5.06,11.29,11.29v18.13"/>
        <path class="cls-1" d="M275.21,300.65h33.83c6.24,0,11.29,5.06,11.29,11.29v36.97c0,6.24-5.06,11.29-11.29,11.29h-36.97"/>
        <path class="cls-1" d="M409.48,464.58h-14.08c-6.24,0-11.29-5.06-11.29-11.29v-36.97c0-6.24,5.06-11.29,11.29-11.29h7.47"/>
        <rect class="cls-1" x="260.78" y="405.04" width="59.55" height="59.55" rx="11.29" ry="11.29"/>
      </g>
      <g>
        <g>
          <path class="cls-1" d="M5.2,302.4H240.52c5.77,0,10.46,4.69,10.46,10.46v21.89c0,40.47-32.85,73.32-73.32,73.32H78.52c-40.47,0-73.32-32.85-73.32-73.32v-32.36h0Z"/>
          <path class="cls-1" d="M125.12,302.4H5.2c0-63.73,49.71-115.85,112.47-119.69,4.03-.25,7.45,2.95,7.45,6.99v112.71S40.35,217.63,40.35,217.63"/>
        </g>
        <circle class="cls-1" cx="188.2" cy="479.24" r="40.96"/>
        <circle class="cls-1" cx="67.98" cy="479.24" r="40.96"/>
        <circle class="cls-1" cx="67.98" cy="479.24" r="12.99"/>
        <circle class="cls-1" cx="188.2" cy="479.24" r="12.99"/>
        <line class="cls-1" x1="108.95" y1="479.24" x2="147.23" y2="479.24"/>
        <line class="cls-1" x1="188.2" y1="438.27" x2="167.27" y2="408.07"/>
        <line class="cls-1" x1="67.98" y1="438.27" x2="88.91" y2="408.07"/>
      </g>
      <g>
        <circle class="cls-1" cx="516.88" cy="425.31" r="94.89" transform="translate(-149.35 490.06) rotate(-45)"/>
        <g>
          <path class="cls-1" d="M488.3,458.22c0,10.01,8.11,18.12,18.12,18.12h20.93c10.01,0,18.12-8.11,18.12-18.12v-14.93c0-10.01-8.11-18.12-18.12-18.12h-20.93c-10.01,0-18.12-8.11-18.12-18.12v-14.65c0-10.01,8.11-18.12,18.12-18.12h20.93c10.01,0,18.12,8.11,18.12,18.12"/>
          <line class="cls-1" x1="516.88" y1="374.27" x2="516.88" y2="358.29"/>
          <line class="cls-1" x1="516.88" y1="492.33" x2="516.88" y2="476.35"/>
        </g>
      </g>
    </g>
  </g>
</svg>