<?xml version="1.0" encoding="UTF-8"?>
<svg id="Layer_2" data-name="Layer 2" xmlns="http://www.w3.org/2000/svg" viewBox="0 0 491.17 616.97">
  <defs>
    <style>
      .cls-1 {
        fill: none;
        stroke: #333;
        stroke-linecap: round;
        stroke-linejoin: round;
        stroke-width: 10.4px;
      }
    </style>
  </defs>
  <g id="_ÎÓÈ_1" data-name="—ÎÓÈ_1">
    <g>
      <g>
        <path class="cls-1" d="M359.2,611.77c65.99,.69,122-50.46,126.49-117.12,1.2-17.86-1.41-35.11-7.15-50.96l-20.98,30.09-27.07-6.68c2.08,7.61,2.95,15.69,2.39,23.99-2.11,31.34-23.91,56.76-52.5,64.96l-29.44,25.95,8.25,29.76Z"/>
        <path class="cls-1" d="M336.43,535.7c-5.62,1.4-11.49,2.14-17.53,2.14-40.05,0-72.62-32.58-72.62-72.63s32.58-72.62,72.62-72.62c31.72,0,58.76,20.44,68.63,48.85l27.46,4.84,18.91-31.43c-19.44-44.22-63.67-75.18-114.99-75.18-60.14,0-110.49,42.53-122.68,99.08h-63.79s0-47.6,0-47.6c0-14.61-11.85-26.46-26.46-26.46s-26.46,11.85-26.46,26.46v47.6s-47.85,0-47.85,0c-14.61,0-26.46,11.85-26.46,26.46s11.85,26.46,26.46,26.46h47.85v47.6c0,14.61,11.85,26.46,26.46,26.46s26.46-11.85,26.46-26.46v-47.6s63.79,0,63.79,0c12.19,56.55,62.54,99.09,122.68,99.09l-10.72-24.09,28.25-30.96Z"/>
        <polyline class="cls-1" points="240.42 367.33 241.22 400.94 271.46 410.29"/>
      </g>
      <g>
        <rect class="cls-1" x="228.01" y="74.88" width="184.73" height="157.12" rx="19.13" ry="19.13"/>
        <polyline class="cls-1" points="5.2 120.4 227.56 120.4 227.56 186.49 5.2 186.49"/>
        <rect class="cls-1" x="214.1" y="5.2" width="212.55" height="40.57" rx="17.98" ry="17.98"/>
        <rect class="cls-1" x="214.1" y="261.11" width="212.55" height="40.57" rx="17.98" ry="17.98"/>
        <line class="cls-1" x1="250.96" y1="74.88" x2="250.96" y2="45.77"/>
        <line class="cls-1" x1="389.78" y1="74.88" x2="389.78" y2="45.77"/>
        <line class="cls-1" x1="250.96" y1="261.11" x2="250.96" y2="232"/>
        <line class="cls-1" x1="389.78" y1="261.11" x2="389.78" y2="232"/>
      </g>
    </g>
  </g>
</svg>