<?xml version="1.0" encoding="UTF-8"?>
<svg id="Layer_2" data-name="Layer 2" xmlns="http://www.w3.org/2000/svg" viewBox="0 0 651.63 574.2">
  <defs>
    <style>
      .cls-1 {
        fill: none;
        stroke: #333;
        stroke-linecap: round;
        stroke-linejoin: round;
        stroke-width: 10.4px;
      }
    </style>
  </defs>
  <g id="_ÎÓÈ_1" data-name="—ÎÓÈ_1">
    <g>
      <g>
        <g>
          <rect class="cls-1" x="5.2" y="463.32" width="438.43" height="40.87" rx="11.55" ry="11.55"/>
          <polyline class="cls-1" points="30.27 569 30.27 504.19 418.56 504.19 418.56 569"/>
          <line class="cls-1" x1="342.34" y1="543.63" x2="106.49" y2="543.63"/>
        </g>
        <rect class="cls-1" x="199.77" y="320.64" width="50.22" height="78.79" rx="14.91" ry="14.91"/>
        <line class="cls-1" x1="224.88" y1="399.44" x2="224.88" y2="463.32"/>
      </g>
      <g>
        <path class="cls-1" d="M53.18,463.32v-69.6c0-32.69,21.44-61.51,52.75-70.92l87.36-26.24v-36.94"/>
        <path class="cls-1" d="M395.65,463.32v-69.6c0-32.69-21.44-61.51-52.75-70.92l-87.36-26.24v-36.94"/>
        <path class="cls-1" d="M297.71,150.72v47.02c0,36.7-29.75,66.45-66.45,66.45h-13.69c-36.7,0-66.45-29.75-66.45-66.45v-47.02"/>
        <path class="cls-1" d="M141.08,150.72h10.04v47.02h-10.04c-12.98,0-23.51-10.53-23.51-23.51h0c0-12.98,10.53-23.51,23.51-23.51Z"/>
        <path class="cls-1" d="M321.22,150.72h10.04v47.02h-10.04c-12.98,0-23.51-10.53-23.51-23.51h0c0-12.98,10.53-23.51,23.51-23.51Z" transform="translate(628.97 348.47) rotate(180)"/>
        <path class="cls-1" d="M151.12,150.72s67.01,.57,92.01-55c8.6,37.41,37.41,45.03,54.58,55"/>
        <line class="cls-1" x1="232.37" y1="320.64" x2="256" y2="297.01"/>
        <line class="cls-1" x1="193.29" y1="296.55" x2="217.38" y2="320.64"/>
        <path class="cls-1" d="M336.73,320.94c19.75-6.22,34.07-24.68,34.07-46.49,0-7.74-1.85-15.03-5.06-21.53,19.74-8.91,33.51-28.73,33.51-51.8,0-27.39-19.37-50.25-45.16-55.64,6.34-8.01,10.16-18.11,10.16-29.12,0-25.94-21.02-46.96-46.96-46.96-4.19,0-8.23,.6-12.09,1.63,.79-2.86,1.24-5.85,1.24-8.96,0-18.59-15.07-33.66-33.66-33.66-10.59,0-20.02,4.9-26.19,12.55-7.99-20.89-28.17-35.76-51.87-35.76-30.7,0-55.58,24.88-55.58,55.58,0,3.69,.38,7.29,1.06,10.78-24.54,.41-44.32,20.41-44.32,45.05,0,5.62,1.1,10.97,2.99,15.92-.8-.03-1.6-.06-2.41-.06-32.26,0-58.41,26.15-58.41,58.41,0,.16,.01,.33,.01,.49,0,.08-.01,.16-.01,.25,0,.54,.04,1.06,.06,1.6,.01,.29,.02,.58,.03,.87,.45,10.47,3.71,20.22,9.11,28.46l.16,.03c10.33,15.96,28.23,26.55,48.62,26.7-5.7,7.77-9.1,17.32-9.1,27.69,0,19.28,11.63,35.84,28.25,43.05"/>
        <polyline class="cls-1" points="129.56 315.69 138.95 347.38 163.73 351.51 151.12 385.14 209.16 463.32"/>
        <polyline class="cls-1" points="319.27 315.69 309.88 347.38 285.1 351.51 297.71 385.14 239.67 463.32"/>
      </g>
      <g>
        <path class="cls-1" d="M397.14,217.32h231.29c9.94,0,18,8.06,18,18v15c0,9.94-8.06,18-18,18H370.8"/>
        <line class="cls-1" x1="472.71" y1="101.51" x2="472.71" y2="6.29"/>
        <path class="cls-1" d="M418.56,531.07h213.73c7.8,0,14.14,6.34,14.14,14.14v9.65c0,7.8-6.34,14.14-14.14,14.14h-213.73v-37.93h0Z"/>
        <path class="cls-1" d="M365.16,149.03c26.6-29.2,64.93-47.52,107.54-47.52,70.17,0,128.74,49.7,142.43,115.81"/>
        <rect class="cls-1" x="472.71" y="6.29" width="85.57" height="54.54"/>
        <path class="cls-1" d="M548.69,268.34h66.44v33.33c0,3.83-3.11,6.93-6.93,6.93h-52.58c-3.83,0-6.93-3.11-6.93-6.93v-33.33h0Z"/>
        <path class="cls-1" d="M442.42,268.34h66.44v33.33c0,3.83-3.11,6.93-6.93,6.93h-52.58c-3.83,0-6.93-3.11-6.93-6.93v-33.33h0Z"/>
        <path class="cls-1" d="M555.63,490.81h52.58c3.83,0,6.93,3.11,6.93,6.93v33.33h-66.44v-33.33c0-3.83,3.11-6.93,6.93-6.93Z"/>
        <path class="cls-1" d="M442.42,531.07h66.44v-33.33c0-3.83-3.1-6.93-6.93-6.93h-31.33"/>
        <path class="cls-1" d="M357.62,308.6h38.04c3.83,0,6.93-3.1,6.93-6.93v-33.33"/>
        <line class="cls-1" x1="601.27" y1="308.83" x2="601.27" y2="490.81"/>
        <line class="cls-1" x1="562.56" y1="308.83" x2="562.56" y2="490.81"/>
        <line class="cls-1" x1="495" y1="308.83" x2="495" y2="490.81"/>
        <line class="cls-1" x1="387.78" y1="308.83" x2="387.78" y2="320.94"/>
        <line class="cls-1" x1="456.29" y1="308.83" x2="456.29" y2="449.77"/>
      </g>
    </g>
  </g>
</svg>