<?xml version="1.0" encoding="UTF-8"?>
<svg id="Layer_2" data-name="Layer 2" xmlns="http://www.w3.org/2000/svg" viewBox="0 0 634.3 553.66">
  <defs>
    <style>
      .cls-1 {
        fill: none;
        stroke: #333;
        stroke-linecap: round;
        stroke-linejoin: round;
        stroke-width: 10.4px;
      }
    </style>
  </defs>
  <g id="_ÎÓÈ_1" data-name="—ÎÓÈ_1">
    <g>
      <g>
        <path class="cls-1" d="M297.83,131.32h0c-11.68,0-21.15-9.47-21.15-21.15V26.34c0-11.68,9.47-21.15,21.15-21.15h0c11.68,0,21.15,9.47,21.15,21.15V110.18c0,11.68-9.47,21.15-21.15,21.15Z"/>
        <path class="cls-1" d="M340.12,120.75h0c-11.68,0-21.15-9.47-21.15-21.15V36.69c0-11.68,9.47-21.15,21.15-21.15h0c11.68,0,21.15,9.47,21.15,21.15v62.91c0,11.68-9.47,21.15-21.15,21.15Z"/>
        <rect class="cls-1" x="234.39" y="5.2" width="42.29" height="115.55" rx="21.15" ry="21.15"/>
        <path class="cls-1" d="M213.24,109.84h0c-11.68,0-21.15-9.47-21.15-21.15V44.79c0-11.68,9.47-21.15,21.15-21.15h0c11.68,0,21.15,9.47,21.15,21.15v43.9c0,11.68-9.47,21.15-21.15,21.15Z"/>
        <path class="cls-1" d="M192.1,83.41v63.84c0,57.29,42.29,56.09,42.29,102.58,0,58.79-4.35,293.01-4.35,293.01"/>
        <path class="cls-1" d="M361.26,73.58s8.1-54.89,33.74-47.69c21.85,6.13,1.35,30.14,.9,60.74-.45,30.59,5.85,80.98-22.94,109.78-26.68,26.68-20.25,59.39-18.45,120.12,1.73,58.52,9,226.3,9,226.3"/>
        <path class="cls-1" d="M284.33,189.66s6.3-29.69,30.14-40.94"/>
      </g>
      <g>
        <path class="cls-1" d="M146.3,469.35h-29.6v-39.66c35.17-7.58,61.61-38.89,61.61-76.28,0-43.04-35.02-78.06-78.07-78.06s-78.06,35.02-78.06,78.06c0,37.4,26.45,68.7,61.61,76.28v39.66h-29.6c-9.09,0-16.45,7.37-16.45,16.45s7.37,16.45,16.45,16.45h29.6v29.75c0,9.09,7.37,16.45,16.45,16.45s16.45-7.37,16.45-16.45v-29.75h29.6c9.09,0,16.45-7.37,16.45-16.45s-7.37-16.45-16.45-16.45Zm-91.21-115.95c0-24.9,20.26-45.16,45.16-45.16s45.16,20.26,45.16,45.16-20.26,45.16-45.16,45.16-45.16-20.26-45.16-45.16Z"/>
        <path class="cls-1" d="M628.78,224.4c-.1-.49-.28-.93-.42-1.4-.16-.56-.29-1.13-.52-1.67-.23-.56-.55-1.06-.83-1.58-.23-.42-.41-.85-.68-1.25-1.21-1.81-2.76-3.36-4.56-4.56-.41-.27-.85-.46-1.27-.69-.52-.28-1.02-.6-1.56-.82-.53-.22-1.09-.35-1.64-.51-.48-.14-.94-.33-1.43-.43-1-.2-2.02-.3-3.05-.31-.06,0-.12-.02-.18-.02h-72.77c-9.1,0-16.47,7.37-16.47,16.47s7.37,16.47,16.47,16.47h33.01l-42.49,42.49c-11.76-7.09-25.48-11.25-40.18-11.25-43.09,0-78.15,35.06-78.15,78.15s35.06,78.15,78.15,78.15,78.15-35.06,78.15-78.15c0-16.48-5.16-31.76-13.9-44.38l41.72-41.72v33.01c0,9.1,7.37,16.47,16.47,16.47s16.47-7.37,16.47-16.47v-72.78c0-1.08-.11-2.16-.33-3.23Zm-138.58,174.3c-24.93,0-45.21-20.28-45.21-45.21s20.28-45.21,45.21-45.21,45.21,20.28,45.21,45.21-20.28,45.21-45.21,45.21Z"/>
        <g>
          <line class="cls-1" x1="100.25" y1="275.34" x2="100.25" y2="96.82"/>
          <line class="cls-1" x1="490.2" y1="275.34" x2="490.2" y2="96.82"/>
          <circle class="cls-1" cx="100.25" cy="66.74" r="30.08" transform="translate(18.31 155.01) rotate(-80.78)"/>
          <line class="cls-1" x1="192.1" y1="66.74" x2="130.33" y2="66.74"/>
          <line class="cls-1" x1="70.17" y1="66.74" x2="5.2" y2="66.74"/>
          <circle class="cls-1" cx="490.2" cy="66.74" r="30.08" transform="translate(96.38 366.17) rotate(-45)"/>
          <line class="cls-1" x1="398.63" y1="66.74" x2="460.12" y2="66.74"/>
          <line class="cls-1" x1="520.27" y1="66.74" x2="585.25" y2="66.74"/>
        </g>
      </g>
    </g>
  </g>
</svg>