<?xml version="1.0" encoding="UTF-8"?>
<svg id="Layer_2" data-name="Layer 2" xmlns="http://www.w3.org/2000/svg" viewBox="0 0 501.16 616.97">
  <defs>
    <style>
      .cls-1 {
        fill: none;
        stroke: #333;
        stroke-linecap: round;
        stroke-linejoin: round;
        stroke-width: 10.4px;
      }
    </style>
  </defs>
  <g id="_ÎÓÈ_1" data-name="—ÎÓÈ_1">
    <g>
      <path class="cls-1" d="M107.29,508h-24.27v-32.53c28.84-6.22,50.53-31.89,50.53-62.56,0-35.3-28.72-64.02-64.02-64.02S5.51,377.62,5.51,412.92c0,30.67,21.69,56.34,50.52,62.56v32.53H31.76c-7.45,0-13.49,6.04-13.49,13.49s6.04,13.49,13.49,13.49h24.27v24.4c0,7.45,6.04,13.49,13.49,13.49s13.49-6.04,13.49-13.49v-24.4h24.27c7.45,0,13.49-6.04,13.49-13.49s-6.04-13.49-13.49-13.49Zm-74.8-95.09c0-20.42,16.61-37.03,37.03-37.03s37.03,16.61,37.03,37.03-16.61,37.03-37.03,37.03-37.03-16.61-37.03-37.03Z"/>
      <path class="cls-1" d="M495.7,307.02c-.08-.4-.23-.76-.34-1.15-.13-.46-.24-.92-.42-1.37-.19-.45-.45-.87-.68-1.29-.19-.34-.34-.7-.56-1.03-.99-1.48-2.26-2.75-3.73-3.73-.33-.22-.69-.38-1.04-.56-.42-.23-.83-.49-1.28-.67-.44-.18-.89-.28-1.34-.42-.39-.12-.77-.27-1.17-.35-.82-.16-1.66-.24-2.49-.25-.05,0-.1-.01-.15-.01h-59.53c-7.44,0-13.47,6.03-13.47,13.47s6.03,13.47,13.47,13.47h27l-34.76,34.76c-9.62-5.8-20.84-9.2-32.87-9.2-35.25,0-63.93,28.68-63.93,63.93s28.68,63.93,63.93,63.93,63.93-28.68,63.93-63.93c0-13.48-4.22-25.98-11.37-36.31l34.12-34.13v27c0,7.44,6.03,13.47,13.47,13.47s13.47-6.03,13.47-13.47v-59.53c0-.88-.09-1.77-.27-2.64Zm-113.36,142.58c-20.39,0-36.98-16.59-36.98-36.98s16.59-36.98,36.98-36.98,36.98,16.59,36.98,36.98-16.59,36.98-36.98,36.98Z"/>
      <g>
        <path class="cls-1" d="M322.25,250.29v61.09c0,47.68-38.65,86.32-86.32,86.32h-17.78c-47.68,0-86.32-38.65-86.32-86.32v-61.09"/>
        <path class="cls-1" d="M118.77,250.29h13.05v61.09h-13.05c-16.86,0-30.54-13.69-30.54-30.54h0c0-16.86,13.69-30.54,30.54-30.54Z"/>
        <path class="cls-1" d="M352.79,250.29h13.05v61.09h-13.05c-16.86,0-30.54-13.69-30.54-30.54h0c0-16.86,13.69-30.54,30.54-30.54Z" transform="translate(688.09 561.67) rotate(-180)"/>
        <path class="cls-1" d="M131.82,250.29s87.05,.75,119.53-71.45c16.34,51.09,70.9,19.54,70.9,71.45"/>
        <path class="cls-1" d="M353.44,256.29s24.73-70.82-18.01-108.9"/>
        <path class="cls-1" d="M118.63,147.39c-32.35,0-58.57,26.22-58.57,58.57,0,10.17,2.6,19.73,7.16,28.06-28.19,3.01-50.16,26.86-50.16,55.86,0,16.81,7.38,31.9,19.08,42.2"/>
        <g>
          <path class="cls-1" d="M219.5,136.03L73.83,77.6c-5.64-2.26-5.64-10.25,0-12.51L219.5,6.65c4.83-1.94,10.22-1.94,15.05,0l145.68,58.43c5.64,2.26,5.64,10.25,0,12.51l-145.68,58.43c-4.83,1.94-10.22,1.94-15.05,0Z"/>
          <path class="cls-1" d="M335.44,95.57v51.83c0,5.56-3.43,10.5-8.58,12.57-66.55,26.75-133.1,26.75-199.64,0-5.15-2.07-8.58-7.02-8.58-12.57v-51.83"/>
          <circle class="cls-1" cx="227.03" cy="69.18" r="13.19" transform="translate(107.81 274.4) rotate(-76.79)"/>
        </g>
        <polyline class="cls-1" points="303.17 450.3 267.47 439.57 267.47 391.75"/>
        <path class="cls-1" d="M448.86,611.77v-46.41c0-26.78-11.11-51.56-29.55-69.23"/>
        <path class="cls-1" d="M5.5,557.79c-.2,2.5-.3,5.03-.3,7.57v46.41"/>
        <polyline class="cls-1" points="186.59 391.75 186.59 439.57 109.77 462.65"/>
        <polyline class="cls-1" points="186.59 439.57 227.03 485.17 267.33 439.43"/>
      </g>
      <rect class="cls-1" x="160.78" y="529.68" width="132.5" height="29.25" rx="9.32" ry="9.32"/>
      <rect class="cls-1" x="160.78" y="582.52" width="132.5" height="29.25" rx="9.32" ry="9.32"/>
    </g>
  </g>
</svg>