<?xml version="1.0" encoding="UTF-8"?>
<svg id="Layer_2" data-name="Layer 2" xmlns="http://www.w3.org/2000/svg" viewBox="0 0 1293.58 904.87">
  <g id="Layer_2-2" data-name="Layer 2">
    <g>
      <path d="M959.96,311.71c8.4,9.86,19.4,12.93,29.55,15.59,47.36,12.37,71.05,15.61,71.05,15.61,66.8,9.12,76.02,18.04,119.16,16.65,25.96-.84,36.24-4.54,43.17-7.81,31.61-14.91,43.18-44.95,46.34-54.71,10.33-31.95-.5-60.22-10.06-84.14-23.19-58-63.23-91.65-92.77-116.19-21.79-18.11-50.22-31.86-107.08-59.36-8.31-4.02-23.63-11.17-39.94-6.49-11.92,3.42-20.58,12.08-23.38,14.94-8.1,8.27-11.74,16.99-13.86,21.36-11.33,23.29-17.93,79.76-19.3,90.94-5.13,41.96-13.14,72.62-13.32,117.84-.03,8.5,.25,23.84,10.44,35.8Zm100.01-164.63c4.95-5.22,12.41-5.13,16.2-5.08,2.39,.03,12.03,.31,19.55,7.96,1.62,1.64,9.87,10.03,7.44,20.25-2.27,9.56-12.5,14.92-21.1,15.39-10.24,.55-18.97-5.8-23.07-13.52-3.7-6.95-5.39-18.29,.97-25Z"/>
      <path d="M1235.73,500.19c-3.71-3.03-15.91-8-39.99-18.06-24.01-10.03-36.01-15.05-47.33-18.72-12.55-4.07-30.52-9.08-53.04-12.58-10.73-2.75-25.42-5.95-43.1-8.11-19.45-2.38-29.45-3.53-42.51-1.24-8.61,1.51-27.79,4.88-41.24,18.78-13.02,13.46-14.62,30.55-16.4,47.1,0,0-.38,2.47-1.14,7.64-.48-1.15-.99-2.3-1.58-3.46-1.7-3.36-7.23-13.96-19.01-21.16-17.81-10.88-37.66-6.49-59.12-1.74-14.1,3.12-22.3,4.93-31.35,11.73-16.91,12.68-21.78,31.44-23.39,38.01-1.42,5.81-1.73,10.1,.61,42.58,1.46,20.34,2.72,34.43,4.23,51.84,1.37,15.79,3.52,31.51,4.43,47.33,.43,7.43,1.17,22.63,6.99,40.69,2.15,6.67,4.21,11.31,8.34,15.59,.65,.67,11.33,11.42,25.05,9.98,12.82-1.35,20.46-12.52,28.71-24.57,9.11-13.31,13.17-25.01,16.11-33.44,7.11-20.37,14.76-40.55,21.63-61,2.02-6.01,3.85-11.41,5.54-16.36-.56,4.47-1.14,9.09-1.74,13.88-1.39,11.18-8.7,67.56-3.37,92.9,1,4.75,2.41,14.09,8.26,24.08,2.02,3.45,8.32,13.95,19.05,20.17,14.68,8.5,31.28,5.28,40.32,3.4,61.84-12.87,92.76-19.3,118.3-31.58,34.62-16.64,81.63-39.55,118.21-90.18,15.09-20.89,32.46-45.68,30.2-79.18-.69-10.23-4.62-42.18-31.66-64.33Zm-155.17,53.28c-1.32,10.42-12,15.37-14.09,16.34-9.73,4.52-18.85,1.39-21.1,.58-3.57-1.29-10.58-3.82-13.38-10.45-3.6-8.52,1.97-18.54,7.88-23.75,6.55-5.78,16.96-8.66,26.35-4.54,7.89,3.46,15.58,12.08,14.35,21.82Z"/>
      <path d="M716.68,424.17c-12.48,2.88-24.1,5.72-35.51,8.68-3.51,.91-5.62,4.5-4.71,8.01,.77,2.96,3.43,4.92,6.35,4.92,.55,0,1.1-.07,1.66-.21,11.29-2.94,22.79-5.75,35.16-8.6,3.54-.81,5.74-4.34,4.93-7.88-.81-3.54-4.34-5.74-7.88-4.93Z"/>
      <path d="M788.04,408.92c-11.34,2.34-22.87,4.75-35.68,7.44-3.55,.75-5.83,4.23-5.08,7.78,.65,3.1,3.38,5.22,6.42,5.22,.45,0,.9-.05,1.36-.14,12.8-2.69,24.32-5.1,35.63-7.43,3.55-.73,5.84-4.21,5.11-7.76-.73-3.55-4.2-5.84-7.76-5.11Z"/>
      <path d="M985.73,383.53c-5.46,0-10.98,.07-16.42,.21-3.63,.09-6.49,3.11-6.4,6.74,.09,3.63,3.12,6.49,6.74,6.4,5.33-.14,10.74-.21,16.09-.21,6.58,0,13.3,.11,19.96,.31,.07,0,.14,0,.21,0,3.53,0,6.45-2.81,6.56-6.36,.11-3.63-2.74-6.66-6.36-6.77-6.8-.21-13.65-.32-20.37-.32Z"/>
      <path d="M1115.64,396.28c-3.55-.7-7.01,1.62-7.71,5.18-.7,3.56,1.62,7.01,5.18,7.71,11.7,2.29,23.55,4.93,35.22,7.85,.54,.13,1.07,.2,1.6,.2,2.94,0,5.62-1.99,6.37-4.98,.88-3.52-1.26-7.09-4.78-7.97-11.89-2.97-23.97-5.66-35.88-8Z"/>
      <path d="M1042.83,386c-3.6-.31-6.8,2.37-7.11,5.98-.31,3.61,2.37,6.8,5.98,7.11,11.89,1.03,23.94,2.4,35.84,4.08,.31,.04,.62,.07,.93,.07,3.22,0,6.03-2.37,6.5-5.65,.51-3.59-1.99-6.92-5.59-7.42-12.13-1.72-24.43-3.12-36.55-4.16Z"/>
      <path d="M1186.95,414.08c-3.47-1.06-7.14,.91-8.2,4.38-1.05,3.47,.91,7.14,4.38,8.2,11.4,3.46,22.94,7.27,34.29,11.33,.73,.26,1.48,.38,2.21,.38,2.7,0,5.23-1.68,6.19-4.36,1.22-3.42-.56-7.18-3.98-8.4-11.55-4.12-23.29-8-34.89-11.53Z"/>
      <path d="M434.37,488.54c-12,1.18-24.14,2.18-36.09,2.97-3.62,.24-6.36,3.37-6.12,6.99,.23,3.47,3.12,6.14,6.55,6.14,.14,0,.29,0,.44-.01,12.09-.79,24.38-1.8,36.52-3,3.61-.36,6.25-3.57,5.89-7.18-.36-3.61-3.57-6.26-7.18-5.89Z"/>
      <path d="M42,445.37c-3.43-1.18-7.17,.65-8.35,4.08-1.18,3.43,.65,7.17,4.08,8.35,11.53,3.96,23.29,7.74,34.93,11.23,.63,.19,1.26,.28,1.89,.28,2.83,0,5.44-1.84,6.29-4.69,1.04-3.48-.93-7.14-4.41-8.18-11.48-3.44-23.07-7.16-34.44-11.07Z"/>
      <path d="M111.29,466.12c-3.51-.9-7.09,1.22-8,4.73-.9,3.51,1.22,7.09,4.73,8,11.8,3.03,23.82,5.85,35.72,8.4,.46,.1,.93,.15,1.38,.15,3.03,0,5.76-2.11,6.42-5.19,.76-3.55-1.5-7.04-5.05-7.8-11.73-2.51-23.58-5.3-35.21-8.28Z"/>
      <path d="M645.92,442.63c-12.1,3.57-22.69,6.9-32.93,10.12l-1.92,.61c-3.46,1.09-5.39,4.78-4.3,8.24,.88,2.81,3.47,4.6,6.27,4.6,.65,0,1.32-.1,1.97-.3l1.93-.61c10.19-3.2,20.72-6.52,32.71-10.05,3.48-1.03,5.47-4.68,4.44-8.16-1.03-3.48-4.68-5.47-8.16-4.44Z"/>
      <path d="M1289.77,453.49c-11.12-5.16-22.44-10.11-33.64-14.72-3.36-1.38-7.19,.22-8.57,3.58-1.38,3.36,.23,7.19,3.58,8.57,11.02,4.53,22.16,9.4,33.1,14.48,.9,.42,1.84,.61,2.76,.61,2.48,0,4.85-1.41,5.96-3.8,1.53-3.29,.1-7.2-3.19-8.73Z"/>
      <path d="M182,481.27c-3.58-.62-6.97,1.78-7.59,5.36-.62,3.58,1.78,6.97,5.36,7.59,12,2.07,24.2,3.93,36.28,5.52,.29,.04,.58,.06,.87,.06,3.25,0,6.07-2.41,6.5-5.71,.47-3.6-2.06-6.9-5.66-7.37-11.9-1.57-23.93-3.4-35.76-5.44Z"/>
      <path d="M513.7,484.51c-.59-3.58-3.98-6-7.55-5.41-4.62,.76-9.45,1.53-14.37,2.27-7.11,1.07-14.32,2.09-21.43,3.03-3.6,.47-6.13,3.77-5.66,7.37,.43,3.31,3.26,5.71,6.51,5.71,.29,0,.57-.02,.86-.06,7.19-.95,14.49-1.98,21.68-3.06,4.98-.75,9.88-1.53,14.56-2.3,3.58-.59,6-3.98,5.41-7.56Z"/>
      <path d="M253.69,490.7c-3.61-.32-6.8,2.35-7.12,5.96-.32,3.61,2.35,6.8,5.96,7.12,11.6,1.03,23.93,1.82,36.66,2.35,.09,0,.19,0,.28,0,3.5,0,6.41-2.76,6.56-6.29,.15-3.63-2.66-6.69-6.29-6.84-12.53-.52-24.66-1.3-36.05-2.31Z"/>
      <path d="M576.47,463.8c-11.65,3.26-23.06,6.08-34.9,8.62-3.55,.76-5.8,4.26-5.04,7.8,.66,3.08,3.39,5.19,6.42,5.19,.46,0,.92-.05,1.39-.15,12.1-2.6,23.77-5.49,35.67-8.82,3.49-.98,5.53-4.6,4.56-8.1-.98-3.49-4.6-5.53-8.1-4.56Z"/>
      <path d="M329.09,493.81c-1.07,0-2.13,0-3.18,0h-.02c-3.62,0-6.56,2.93-6.57,6.55-.01,3.63,2.92,6.58,6.55,6.59,1.07,0,2.14,0,3.22,0,11,0,22.25-.18,33.44-.54,3.63-.12,6.47-3.15,6.36-6.78-.12-3.63-3.15-6.47-6.78-6.36-11.05,.35-22.16,.53-33.01,.53Z"/>
      <path d="M838.16,99.94c17.76,16.7,41.92,12.09,44.37,11.58-.87,3.71-8.5,37.6,5.44,46.74,14.16,9.29,45.72-10.12,58.62-35.14,13.3-25.79,6.5-57-8.68-77.63-13.47-18.3-39.22-36-67.83-31.35-4.42,.72-29,4.72-40.6,26.68-9.43,17.86-8.04,43.39,8.68,59.11Z"/>
      <path d="M51.3,383.47c13.82,17.17,31.4,23.26,37.05,25.13,9.32,3.09,31.85,10.57,53.16-.75,18.68-9.92,25.51-28.47,30.02-40.75,7.83-21.29,6.3-40.16,4.83-49.8,8.44,17.86,25.73,48.22,58.64,73.95,22.6,17.67,48.96,38.27,83.24,34.27,34.33-4.01,69.92-31.9,71.76-62.82,.17-2.87,.03-5.6-.39-8.27,.19,.29,.38,.58,.57,.87,12.03,18.05,37.5,56.24,81.15,61.35,36.58,4.28,65.31-17.07,80.74-28.54,40.55-30.14,54.01-71.57,57.7-83.47,.93-3,5-16.85,6.51-36.71,6.19,12.46,18.12,33.33,41.76,50.17,45.54,32.45,96.79,23.03,104.57,21.47,62.19-12.46,118.88-70.99,109.61-112.08-3.48-15.41-16.89-31.25-34.91-36.53-26.99-7.91-50.31,11.97-52.34,13.75,27-27.76,37.87-66.02,27.07-99.47-9.23-28.57-31.12-43.88-37.78-48.17-33-21.24-67.81-13.78-76.44-11.78-44.03,10.18-66.65,46.56-75.57,60.92-13.27,21.34-20.76,45.21-23.09,69.29-2.35-4.71-4.98-9.42-7.93-14.11-8.55-13.57-31.99-50.78-77.91-64.25-10.29-3.02-41.09-11.57-74.28,2.31-17.06,7.14-28.42,17.55-35.67,25.31,.52-9.08,0-18.32-1.78-27.46-11.71-60.22-70.68-83.16-83.16-88.02-54.09-21.04-103.23-.88-121.96,6.8-40.34,16.55-63.99,42.75-79.8,60.66-30.73,34.81-42.7,68.97-63.63,126.96-7.23,20.03-13.89,41.62-17.97,68.38-5.51,36.11-2.56,56.97-1.18,65.05,2.85,16.69,5.6,31.63,17.42,46.32ZM703.82,111.47c10.51-8.82,26.44-8.32,36.39-1.11,1.9,1.38,7.36,5.45,9.25,12.77,2.47,9.53-2.5,19.26-9.1,24.65-10.78,8.81-24.31,4.75-26.81,4-3.11-.93-16.67-4.99-19.43-16.99-2.86-12.48,8.53-22.34,9.69-23.31Zm-218.87,64.53c8.27-11.42,25.45-9.26,28.12-8.92,3.89,.49,19.12,2.41,24.23,14.72,4.47,10.78-1.67,22.63-8.49,28.9-8.69,8-23.07,11.15-34.32,4.4-13.55-8.14-17.73-27.78-9.54-39.09Zm-119.19,27.44c-1.56,9.25-2.34,17.59-2.94,24.39-1.54,17.65-4.85,55.68,11.04,96.21-3.03-4.03-6.47-8.39-10.3-13.22-40.48-51.11-89.1-76.68-85.64-82.82,.44-.77,1.9-1.59,7.47-.49,0,0,29.52,5.32,71.02-17.77,3.22-1.79,6.33-3.92,9.34-6.31Zm-100.03-116.8c7.95-16.69,28.59-17.22,29.71-17.23,3.36-.03,17.45-.16,25.21,11.07,8.35,12.08,1.84,26.41,1.2,27.74-6.2,13.06-21.1,18.78-33.36,17.47-2.83-.3-15.05-1.61-21.82-12.23-7.69-12.07-1.55-25.54-.94-26.82Z"/>
      <path d="M918.84,356.42c-8.84-3.04-16.7-.81-19.78,.11-2.38,.71-8.08,2.47-12.9,6.97-1.48,1.38-5.89,5.51-7.49,8.45-.1,.18-.72,1.33-1.92,2.46-.6,.56-1.37,1.28-2.41,1.53-1.46,.35-2.75-.4-3.63-.85-2.26-1.18-4.86-1.57-7.2-2.58-6.95-2.99-17.36-1.34-19.04-1.08-3.76,.59-8.38,1.33-13.47,4.43-2.25,1.37-9.93,6.06-12.62,15.58-.4,1.42-1.61,6.18-.33,12.06,1.59,7.34,6.06,11.8,10.42,16.15,2.96,2.95,7.87,7.16,15.1,10.63,6.28,4.09,11.78,7.34,16.1,9.78,11.25,6.35,7.51,3.24,16.1,7.97,1.12,.62,4.55,2.52,9.23,2.98,1.51,.15,2.94,.27,4.61-.25,3.21-1,4.94-3.64,6.6-6.11,2.47-3.66,5.32-7.07,7.62-10.84,.09-.15,3.83-5.45,11.3-16.04,11.86-16.81,11.84-16.73,12.25-17.48,4.5-8.09,8.57-15.43,7.26-24.63-.31-2.19-1.37-8.89-6.85-14.1-3.31-3.15-6.78-4.38-8.95-5.13Z"/>
      <path d="M807.44,671.41c-6.82-17.17-13.26-33.96-25.02-64.57-3.83-9.96-15.94-41.54-36.15-76.6-6.06-10.52-13.51-22.47-27.83-31.02-11.77-7.02-22.98-8.64-27.58-9.26-3.41-.46-19.86-2.44-39.28,4.8-4.07,1.52-20.72,8.08-36.48,25.83-14.03,15.81-15.4,27.02-29.82,64.9-8.06,21.18-17.61,41.76-26.36,62.67-25,59.68-25.14,59.28-28.99,69.92-6.94,19.21-16.03,47.02-21.53,82.05-3.85,24.53-3.01,33.9-1.5,41.37,1.42,7,6.58,32.48,29.89,49.44,21.05,15.32,43.81,14.15,52.37,13.71,6.76-.35,42.62-1.98,63.01-28.84,9.14-12.04,20-36.4,15.92-59.25-.4-2.27-3.04-16.18,1.45-30.77,1.7-5.54,3.81-9.15,6.88-9.77,1.26-.25,3.83-.24,8.04,3.91,8.34,8.21,8.97,18.67,12.64,32.87,0,0,3.31,12.78,8.69,24.98,5.77,13.06,11.01,24.94,21.58,32.75,13.35,9.86,28.93,8.59,50.39,6.85,19.75-1.6,32.96-2.68,46-12.4,19.91-14.85,24.03-38.38,25.38-46.11,2.38-13.57,1.16-26.01-7.18-54.75-9.63-33.2-18.04-51.18-34.53-92.7Zm-102.03-58.42c-1.77,12.97-15.33,21.91-27.39,21.65-2.64-.06-9.56-.64-15.34-5.91-6.87-6.26-9.98-17.17-5.95-26.4,4.84-11.08,17.11-13.2,20.23-13.74,3.4-.59,13.47-2.33,21.32,4.64,8.58,7.62,7.21,19.16,7.13,19.76Z"/>
      <path d="M411.71,553.47c-56.22-24.48-119.4,29.95-125.86,35.67-9.02,7.98-16.43,16.47-22.59,25,.77-2.17,1.46-4.45,2.03-6.84,1.84-7.61,7.05-29.19-5.28-46.56-8.95-12.61-22.61-16.6-35.51-20.38-17.88-5.23-21.67-1.55-46.16-4.33-29.34-3.33-54.5-12.09-65.38-15.94-13.61-4.82-21.35-8.6-37.22-12.01-23.54-5.06-32.3-2.29-35.67-1.01-11.38,4.3-17.6,12.79-23.76,21.19-5.33,7.27-15.93,21.72-16.28,42.67-.14,8.16-.46,27.92,12.34,38.79,9.39,7.97,29.81,14.55,46.11,14.89,2.92,.06,9.73,0,11.56,3.66,1.67,3.34-1.68,8.12-2.69,9.62-3.48,5.17-7.07,18.6-14.24,45.45-4.81,18.02-2.33,32.91,.87,52.11,3.83,23.01,6.99,41.92,22.08,59.4,5.52,6.39,22.73,26.32,51.49,27.61,1.62,.07,34.36,1.03,53.66-23.15,21.64-27.13,11.1-66.75,9.39-73.17-10.77-40.46-16.15-60.7-16.57-61.62-.45-1.01-2.32-4.99-.83-6.57,1.12-1.18,3.61-.49,4.46-.25,7.51,2.05,15.38,2.66,22.8,5.01,12.25,3.87,26.36-6.43,36.04-13.48,2.27-1.65,7.15-5.31,12.37-11.11-7.27,14.71-11.43,28.1-14.32,37.44-11.07,35.72-9.65,64.7-8.92,74.41,1.43,19.09,3.11,41.43,17.85,65,5.27,8.43,19.17,29.98,46.47,41.74,43.61,18.78,85.51-2.9,92.74-6.83,26.55-14.41,38.97-35.42,54.43-61.59,26.57-44.97,31.29-85.95,32.34-97.01,2.57-27.1,5.58-58.88-12.36-91.77-5.7-10.45-18.81-34.48-45.39-46.05Zm-23.32,116.47c-8.81,5.46-20.91,5.72-29.36-.72-11.84-9.03-12.96-28.53-2.63-39.27,7.1-7.38,18.63-9.63,28.31-5.87,1.11,.43,12.86,5.24,15.85,17.71,2.65,11.06-2.97,22.45-12.17,28.16Z"/>
    </g>
  </g>
</svg>